<?xml version="1.0" encoding="UTF-8"?>
<svg version="1.1" xmlns="http://www.w3.org/2000/svg" width="1024" height="1024">
<path d="M0 0 C337.92 0 675.84 0 1024 0 C1024 337.92 1024 675.84 1024 1024 C686.08 1024 348.16 1024 0 1024 C0 686.08 0 348.16 0 0 Z " fill="#23272E" transform="translate(0,0)"/>
<path d="M0 0 C42.24 0 84.48 0 128 0 C128 2.97 128 5.94 128 9 C127.23816406 9.08636719 126.47632813 9.17273438 125.69140625 9.26171875 C116.19838111 10.55352866 109.14866225 13.55822302 102 20 C100.17294215 22.82342475 100.17294215 22.82342475 98.75 25.9375 C98.24984375 26.95714844 97.7496875 27.97679687 97.234375 29.02734375 C95.43867822 33.35179075 94.87743965 37.30610327 94.84178162 41.96711731 C94.82712058 43.42584999 94.82712058 43.42584999 94.81216335 44.91405201 C94.8063931 45.97342315 94.80062284 47.03279428 94.79467773 48.12426758 C94.78464501 49.2647716 94.77461229 50.40527563 94.76427555 51.58034039 C94.73291896 55.26838341 94.70813097 58.9564372 94.68359375 62.64453125 C94.6651877 64.92297718 94.64635088 67.20141966 94.6270752 69.4798584 C94.55866061 77.92403157 94.49858664 86.36827064 94.4375 94.8125 C94.293125 113.684375 94.14875 132.55625 94 152 C146.14 152 198.28 152 252 152 C251.9175 132.73625 251.835 113.4725 251.75 93.625 C251.73420898 87.55561035 251.71841797 81.4862207 251.70214844 75.23291016 C251.66890448 69.76443225 251.66890448 69.76443225 251.63043213 64.29598999 C251.6158742 61.87146209 251.60904878 59.44687989 251.60845947 57.02230835 C251.60603183 53.33694025 251.57861439 49.65249286 251.54589844 45.96728516 C251.55343454 44.36305663 251.55343454 44.36305663 251.56112289 42.72641945 C251.42733424 33.06192371 248.84967748 24.87199436 242.10546875 17.75390625 C235.20312741 12.00408944 226.71392437 10.12927066 218 9 C218 6.03 218 3.06 218 0 C230.42108933 -0.46499411 242.8400868 -0.81952084 255.2681303 -1.03624344 C261.04070126 -1.14031326 266.80728994 -1.2811899 272.57641602 -1.50878906 C278.15317827 -1.72740224 283.72422331 -1.84591835 289.30494118 -1.89754486 C291.42471227 -1.93428491 293.54419579 -2.00605571 295.66150475 -2.11460114 C311.78668636 -2.90778921 311.78668636 -2.90778921 317.14456558 1.94065857 C321.09929934 6.74110482 324.00175832 12.00980958 326.75077248 17.56716156 C328.52709589 21.02650568 330.65514596 24.12137989 332.875 27.3125 C333.68348032 28.51525657 334.48971641 29.71952693 335.29296875 30.92578125 C335.71884277 31.56467285 336.1447168 32.20356445 336.58349609 32.86181641 C341.4536921 40.21327739 346.24314713 47.61841816 351.05322266 55.00927734 C354.15784807 59.77873574 357.26625312 64.54572731 360.375 69.3125 C360.99109131 70.25722168 361.60718262 71.20194336 362.24194336 72.17529297 C373.42125486 89.31449824 384.62783346 106.43582273 395.84570312 123.54980469 C400.99168299 131.40093448 406.12727415 139.25866861 411.25 147.125 C419.28692748 159.46131059 427.37569832 171.76348293 435.46582031 184.06494141 C435.98390196 184.85272759 436.5019836 185.64051378 437.03576469 186.45217228 C443.10870644 195.68626945 449.18322671 204.91932806 455.2578125 214.15234375 C456.40698407 215.89904677 457.556154 217.64575086 458.70532227 219.39245605 C461.47019604 223.59498307 464.23509161 227.79749576 467 232 C467.16379549 206.94744699 467.28709522 181.89497467 467.3626852 156.84199333 C467.39872179 145.20844456 467.44782031 133.57522923 467.52807617 121.94189453 C467.59802447 111.79780473 467.64304975 101.65395651 467.65861946 91.50963223 C467.66771539 86.14219371 467.68896969 80.77544608 467.7401104 75.40822983 C467.7879405 70.34702741 467.80221744 65.28679455 467.79175377 60.22538757 C467.79366549 58.37677347 467.80740094 56.52812393 467.83443832 54.67970657 C468.03374926 40.3395463 465.61532279 30.19907278 456 19 C447.82179718 12.86987906 439.07288308 9.91571664 429 9 C429 6.03 429 3.06 429 0 C462.33 0 495.66 0 530 0 C530 2.97 530 5.94 530 9 C529.24976563 9.08636719 528.49953125 9.17273438 527.7265625 9.26171875 C520.04318082 10.31649029 512.02560133 11.9553651 506.34765625 17.66015625 C505 19 505 19 503 19 C502.7215625 19.56460937 502.443125 20.12921875 502.15625 20.7109375 C501.38946197 22.22897056 500.59783452 23.73472539 499.78125 25.2265625 C499.3584375 26.01804687 498.935625 26.80953125 498.5 27.625 C498.0771875 28.40101563 497.654375 29.17703125 497.21875 29.9765625 C493.73337571 38.62297179 493.7073395 47.52843235 493.7215271 56.73062134 C493.71651575 58.10043934 493.71063752 59.4702544 493.70397437 60.84006536 C493.68826178 64.58000661 493.68474854 68.31987256 493.68332577 72.05984282 C493.67961636 76.10198947 493.66445326 80.14409553 493.65071106 84.18621826 C493.62848266 91.18145951 493.61344285 98.17668624 493.60334396 105.17195511 C493.58873236 115.28582158 493.5631886 125.39963745 493.53501268 135.51347415 C493.48958972 151.92417117 493.45295635 168.33487548 493.421875 184.74560547 C493.39167102 200.68311851 493.35731227 216.6206137 493.31738281 232.55810547 C493.31492126 233.54118677 493.31245972 234.52426808 493.30992357 235.53713973 C493.29754861 240.46917707 493.28509215 245.4012142 493.27259517 250.33325124 C493.16909472 291.22214265 493.07986928 332.11105604 493 373 C489.78095838 373.18397958 486.5632745 373.29521848 483.34057617 373.39379883 C482.43232841 373.44659248 481.52408066 373.49938614 480.58831024 373.5537796 C473.94764382 373.70617905 473.94764382 373.70617905 471.18393934 371.64668143 C468.77338831 368.88981846 466.86040165 365.83726053 465.31494141 362.52490234 C462.91052604 357.68831671 459.97138964 353.34082833 456.91796875 348.89453125 C455.82168971 347.25784878 454.72783307 345.6195415 453.63623047 343.97973633 C453.07466248 343.1384317 452.51309448 342.29712708 451.93450928 341.43032837 C439.81688515 323.27251969 427.76736441 305.07091031 415.77026367 286.83325195 C409.57925984 277.42261519 403.37009001 268.02511468 397.10968018 258.66049194 C395.36247905 256.04603288 393.6188842 253.42917223 391.875 250.8125 C391.23046875 249.84570312 390.5859375 248.87890625 389.921875 247.8828125 C384.125 239.1875 384.125 239.1875 382.11132812 236.16601562 C380.65808677 233.98682577 379.20377057 231.80838846 377.74804688 229.63085938 C371.23268929 219.87967759 364.78115069 210.08706538 358.33560181 200.28964233 C344.88802141 179.852781 331.35443274 159.47459384 317.76098633 139.13452148 C315.95586097 136.43281461 314.153583 133.72924823 312.35424805 131.02368164 C306.3004042 121.92225601 300.16752497 112.87836907 293.99414062 103.85742188 C293.28837891 102.82294922 292.58261719 101.78847656 291.85546875 100.72265625 C291.23309326 99.81265869 290.61071777 98.90266113 289.96948242 97.96508789 C288.39933912 95.60121156 286.87729469 93.22264318 285.37690735 90.81468201 C284.93061635 90.09893729 284.48432535 89.38319258 284.02451038 88.64575863 C283.68642196 88.10265828 283.34833353 87.55955793 283 87 C282.88579704 118.11762831 282.79737959 149.23520091 282.74467335 180.35298921 C282.73842025 184.03146906 282.73194859 187.7099485 282.7253418 191.38842773 C282.72403024 192.12070893 282.72271869 192.85299013 282.7213674 193.60746167 C282.69964454 205.44542059 282.66024037 217.2832574 282.61423602 229.12114402 C282.56738425 241.27900259 282.53968624 253.43679746 282.52955753 265.5947426 C282.52271635 273.08950038 282.50115443 280.58391294 282.46041767 288.07856438 C282.43072128 293.83737699 282.42774777 299.59597119 282.43446159 305.35484505 C282.43309123 307.7085774 282.42321496 310.06232338 282.40397263 312.41597748 C282.29167914 326.86567693 282.43768594 338.71839028 291.3125 350.8125 C301.93125317 361.57019013 315.45233744 364.3264971 330 365 C330 367.64 330 370.28 330 373 C293.04 373 256.08 373 218 373 C218 370.36 218 367.72 218 365 C218.83402344 364.84144531 219.66804687 364.68289063 220.52734375 364.51953125 C231.98036441 362.14496454 240.15898299 358.77624193 247 349 C251.50336873 340.96855698 251.58089184 333.00737514 251.54589844 324.00341797 C251.55471164 322.49033106 251.56526306 320.97725345 251.57739639 319.46418953 C251.60493517 315.43906736 251.6089129 311.41425605 251.60775757 307.38905334 C251.61031325 303.60179324 251.63445411 299.81478542 251.65673828 296.02758789 C251.70934085 284.97680673 251.72760527 273.92588366 251.75 262.875 C251.8325 238.16625 251.915 213.4575 252 188 C199.86 188 147.72 188 94 188 C94.12375 224.75375 94.12375 224.75375 94.25 262.25 C94.26579102 269.97180664 94.28158203 277.69361328 94.29785156 285.64941406 C94.33109282 292.60276671 94.33109282 292.60276671 94.36956787 299.55609131 C94.38649588 302.64061359 94.39243504 305.72494163 94.39154053 308.80950928 C94.39076392 312.75651157 94.40925153 316.70300215 94.44108915 320.64987135 C94.44954039 322.0905966 94.45149233 323.53137997 94.44582415 324.97211885 C94.40633792 336.47376517 95.56095593 347.73409193 103.96484375 356.31640625 C111.11338655 362.23007602 118.95130069 363.95831125 128 365 C128 367.64 128 370.28 128 373 C85.76 373 43.52 373 0 373 C0 370.36 0 367.72 0 365 C1.794375 364.9690625 1.794375 364.9690625 3.625 364.9375 C11.66417224 364.03293387 21.06144829 359.64743707 26.625 353.6875 C31.70942474 346.75703797 34.11724812 338.27512207 34.13422108 329.76430416 C34.13867892 328.72369742 34.14313676 327.68309069 34.14772969 326.61095041 C34.14754533 325.47419746 34.14736097 324.33744451 34.14717102 323.16624451 C34.15084771 321.95354057 34.1545244 320.74083663 34.1583125 319.49138409 C34.1674224 316.12816555 34.17204531 312.76499574 34.17470181 309.40176952 C34.1786122 305.77309278 34.18819002 302.14443008 34.19691467 298.51576233 C34.21665839 289.75390434 34.22674266 280.99204524 34.23564246 272.23017058 C34.24002881 268.1009923 34.24539472 263.97181529 34.25063133 259.84263802 C34.26764155 246.11108256 34.28213486 232.37952789 34.28938007 218.64796352 C34.29128987 215.08619117 34.29321022 211.52441882 34.29516602 207.96264648 C34.29589163 206.63480453 34.29589163 206.63480453 34.2966319 205.28013749 C34.30492904 190.94576647 34.33026155 176.61147898 34.36274669 162.27714442 C34.39584778 147.55060491 34.41383159 132.82410781 34.41702431 118.0975309 C34.41918659 109.83307435 34.42789382 101.56873961 34.45348549 93.30431938 C34.4752342 86.26478996 34.48322247 79.22541196 34.47351871 72.18585276 C34.46898602 68.5974658 34.47079944 65.00939099 34.49028015 61.42104721 C34.51126674 57.52145053 34.50088787 53.62227943 34.48774719 49.72264099 C34.49871644 48.6015031 34.50968568 47.4803652 34.52098733 46.32525343 C34.43290409 35.4559987 32.02978461 25.82161643 24.2578125 17.90625 C17.04325358 11.81506531 9.21431659 10.06075466 0 9 C0 6.03 0 3.06 0 0 Z " fill="#5678F8" transform="translate(250,310)"/>
<path d="M0 0 C42.24 0 84.48 0 128 0 C128 2.97 128 5.94 128 9 C127.23816406 9.08636719 126.47632813 9.17273438 125.69140625 9.26171875 C116.19838111 10.55352866 109.14866225 13.55822302 102 20 C100.17294215 22.82342475 100.17294215 22.82342475 98.75 25.9375 C98.24984375 26.95714844 97.7496875 27.97679687 97.234375 29.02734375 C95.43867822 33.35179075 94.87743965 37.30610327 94.84178162 41.96711731 C94.82712058 43.42584999 94.82712058 43.42584999 94.81216335 44.91405201 C94.8063931 45.97342315 94.80062284 47.03279428 94.79467773 48.12426758 C94.78464501 49.2647716 94.77461229 50.40527563 94.76427555 51.58034039 C94.73291896 55.26838341 94.70813097 58.9564372 94.68359375 62.64453125 C94.6651877 64.92297718 94.64635088 67.20141966 94.6270752 69.4798584 C94.55866061 77.92403157 94.49858664 86.36827064 94.4375 94.8125 C94.293125 113.684375 94.14875 132.55625 94 152 C146.14 152 198.28 152 252 152 C252 114.71 252 77.42 252 39 C252.33 39 252.66 39 253 39 C253 136.02 253 233.04 253 333 C252.67 333 252.34 333 252 333 C252 285.15 252 237.3 252 188 C199.86 188 147.72 188 94 188 C94.12375 224.75375 94.12375 224.75375 94.25 262.25 C94.26579102 269.97180664 94.28158203 277.69361328 94.29785156 285.64941406 C94.33109282 292.60276671 94.33109282 292.60276671 94.36956787 299.55609131 C94.38649588 302.64061359 94.39243504 305.72494163 94.39154053 308.80950928 C94.39076392 312.75651157 94.40925153 316.70300215 94.44108915 320.64987135 C94.44954039 322.0905966 94.45149233 323.53137997 94.44582415 324.97211885 C94.40633792 336.47376517 95.56095593 347.73409193 103.96484375 356.31640625 C111.11338655 362.23007602 118.95130069 363.95831125 128 365 C128 367.64 128 370.28 128 373 C85.76 373 43.52 373 0 373 C0 370.36 0 367.72 0 365 C1.794375 364.9690625 1.794375 364.9690625 3.625 364.9375 C11.66417224 364.03293387 21.06144829 359.64743707 26.625 353.6875 C31.70942474 346.75703797 34.11724812 338.27512207 34.13422108 329.76430416 C34.13867892 328.72369742 34.14313676 327.68309069 34.14772969 326.61095041 C34.14754533 325.47419746 34.14736097 324.33744451 34.14717102 323.16624451 C34.15084771 321.95354057 34.1545244 320.74083663 34.1583125 319.49138409 C34.1674224 316.12816555 34.17204531 312.76499574 34.17470181 309.40176952 C34.1786122 305.77309278 34.18819002 302.14443008 34.19691467 298.51576233 C34.21665839 289.75390434 34.22674266 280.99204524 34.23564246 272.23017058 C34.24002881 268.1009923 34.24539472 263.97181529 34.25063133 259.84263802 C34.26764155 246.11108256 34.28213486 232.37952789 34.28938007 218.64796352 C34.29128987 215.08619117 34.29321022 211.52441882 34.29516602 207.96264648 C34.29589163 206.63480453 34.29589163 206.63480453 34.2966319 205.28013749 C34.30492904 190.94576647 34.33026155 176.61147898 34.36274669 162.27714442 C34.39584778 147.55060491 34.41383159 132.82410781 34.41702431 118.0975309 C34.41918659 109.83307435 34.42789382 101.56873961 34.45348549 93.30431938 C34.4752342 86.26478996 34.48322247 79.22541196 34.47351871 72.18585276 C34.46898602 68.5974658 34.47079944 65.00939099 34.49028015 61.42104721 C34.51126674 57.52145053 34.50088787 53.62227943 34.48774719 49.72264099 C34.49871644 48.6015031 34.50968568 47.4803652 34.52098733 46.32525343 C34.43290409 35.4559987 32.02978461 25.82161643 24.2578125 17.90625 C17.04325358 11.81506531 9.21431659 10.06075466 0 9 C0 6.03 0 3.06 0 0 Z " fill="#5F45E3" transform="translate(250,310)"/>
</svg>
