<?xml version="1.0" encoding="UTF-8"?>
<svg version="1.1" xmlns="http://www.w3.org/2000/svg" width="445" height="455">
<path d="M0 0 C1.89315903 -0.02674691 3.78616851 -0.06782336 5.67871094 -0.12304688 C8.43157752 -0.2021906 11.18170994 -0.23528449 13.93554688 -0.25878906 C14.77630768 -0.29178101 15.61706848 -0.32477295 16.48330688 -0.35876465 C19.96737043 -0.34693016 22.27432541 -0.3005326 25.03840637 1.94848633 C26.58386531 3.72019967 27.91891438 5.49614873 29.20898438 7.45996094 C29.81093628 8.35432358 29.81093628 8.35432358 30.42504883 9.26675415 C31.54530214 10.97232587 32.59781737 12.70951306 33.64648438 14.45996094 C37.74892177 21.15629479 41.9718892 27.76350031 46.27148438 34.33496094 C46.90223877 35.29958252 47.53299316 36.2642041 48.18286133 37.25805664 C49.504649 39.27803538 50.82700891 41.29763978 52.14990234 43.31689453 C55.71461828 48.75822166 59.27393502 54.20307999 62.83398438 59.64746094 C63.90555786 61.28581909 63.90555786 61.28581909 64.9987793 62.95727539 C69.36886306 69.64025589 73.73224114 76.32752242 78.08398438 83.02246094 C78.54627441 83.73362061 79.00856445 84.44478027 79.48486328 85.17749023 C84.73732629 93.26445632 89.97159605 101.36322796 95.20898438 109.45996094 C96.00323462 76.52081329 96.00323462 76.52081329 96.38623047 43.57516479 C96.39619809 41.57977082 96.41573114 39.5844318 96.43554688 37.58911133 C96.49511982 25.61212663 96.49511982 25.61212663 92.52148438 14.52246094 C88.39872178 10.84540241 83.61096054 9.27844218 78.20898438 8.45996094 C77.08398438 3.70996094 77.08398438 3.70996094 78.20898438 1.45996094 C95.36898437 1.45996094 112.52898437 1.45996094 130.20898438 1.45996094 C130.20898438 3.43996094 130.20898438 5.41996094 130.20898438 7.45996094 C129.32146484 7.75 129.32146484 7.75 128.41601562 8.04589844 C126.78406663 8.58366956 125.15655104 9.13503985 123.53320312 9.69824219 C121.20898438 10.45996094 121.20898438 10.45996094 118.33398438 11.02246094 C114.52333077 13.60025602 114.07786209 18.12307781 113.20898438 22.45996094 C112.7861171 27.46105039 112.78059954 32.45031547 112.79248047 37.46557617 C112.78508707 38.95658038 112.77637796 40.44757854 112.76646423 41.93856812 C112.74327541 45.96134552 112.73799915 49.98396827 112.73580503 54.00680423 C112.73011161 58.23375955 112.70681419 62.46061662 112.68521118 66.68751526 C112.64677286 74.69223938 112.62250406 82.6969351 112.60408652 90.70172793 C112.57065488 105.02443081 112.5126601 119.34704694 112.45009482 133.66964871 C112.42872908 138.68767248 112.41338758 143.70566748 112.40325522 148.72372615 C112.39618861 151.85559213 112.3853021 154.98743762 112.37361336 158.1192894 C112.36909356 159.56113698 112.36621666 161.0029909 112.36519051 162.4448452 C112.35869508 170.50774407 112.1207567 178.44511916 111.20898438 186.45996094 C109.64648438 186.70996094 108.08398438 186.95996094 106.52148438 187.20996094 C105.21630859 187.41878906 105.21630859 187.41878906 103.88476562 187.63183594 C100.13781167 187.39115568 98.83306916 186.10531059 96.20898438 183.45996094 C94.21679688 180.35839844 94.21679688 180.35839844 92.33398438 176.83496094 C89.58904544 171.72409137 86.57366949 167.03775216 83.21337891 162.30908203 C79.2271532 156.64291224 75.42170868 150.85227551 71.58398438 145.08496094 C71.12066711 144.38954193 70.65734985 143.69412292 70.17999268 142.97763062 C62.23114462 131.04565334 54.33429234 119.07964479 46.44943237 107.10531616 C41.60222059 99.744377 36.75230149 92.38522116 31.90118408 85.02685547 C30.7937225 83.34694909 29.68641653 81.66694011 28.57928467 79.98681641 C25.66573113 75.56605033 22.74788259 71.1481971 19.82183838 66.73568726 C18.96207354 65.43764615 18.10393087 64.13852898 17.24749756 62.83828735 C16.08923164 61.08036882 14.92534124 59.32631931 13.75976562 57.57324219 C13.11692627 56.60169189 12.47408691 55.6301416 11.81176758 54.62915039 C10.38957384 52.36125639 10.38957384 52.36125639 8.20898438 51.45996094 C8.26963621 65.90763658 8.34741279 80.35513407 8.44469929 94.80261135 C8.48957574 101.51153932 8.5290089 108.22041518 8.55541992 114.92944336 C8.58147543 121.40698158 8.62189451 127.88428706 8.67217064 134.36168098 C8.68882401 136.82990684 8.70034778 139.29817294 8.70659828 141.76644707 C8.71625566 145.23020562 8.74433606 148.69337077 8.77661133 152.15698242 C8.77517624 153.17190765 8.77374115 154.18683289 8.77226257 155.23251343 C8.86580797 162.3558263 9.43747877 169.45062035 14.43945312 174.88183594 C17.73543188 176.75993949 20.85341945 177.75009348 24.52148438 178.70996094 C25.77574219 179.04511719 27.03 179.38027344 28.32226562 179.72558594 C29.75119141 180.08910156 29.75119141 180.08910156 31.20898438 180.45996094 C31.59117205 182.11610751 31.92293539 183.78453118 32.20898438 185.45996094 C30.52156496 187.14738036 28.39299698 186.63680892 26.07836914 186.68115234 C24.9837587 186.70432526 23.88914825 186.72749817 22.7613678 186.75137329 C21.56974533 186.77122284 20.37812286 186.79107239 19.15039062 186.81152344 C17.32845436 186.84625259 17.32845436 186.84625259 15.4697113 186.88168335 C12.89480907 186.92940902 10.31985944 186.97463231 7.74487305 187.01757812 C3.79197777 187.0846134 -0.16060587 187.16236932 -4.11328125 187.24121094 C-6.60871238 187.28612964 -9.10415489 187.33042144 -11.59960938 187.37402344 C-13.38400673 187.40987045 -13.38400673 187.40987045 -15.20445251 187.44644165 C-16.85109642 187.47174454 -16.85109642 187.47174454 -18.53100586 187.49755859 C-19.98542336 187.52301254 -19.98542336 187.52301254 -21.46922302 187.54898071 C-23.79101562 187.45996094 -23.79101562 187.45996094 -25.79101562 186.45996094 C-25.79101562 184.47996094 -25.79101562 182.49996094 -25.79101562 180.45996094 C-25.11554688 180.21761719 -24.44007813 179.97527344 -23.74414062 179.72558594 C-16.87092518 177.35737133 -16.87092518 177.35737133 -11.79101562 172.45996094 C-9.18495826 164.74307595 -9.4396305 156.85792525 -9.37695312 148.80371094 C-9.35998852 147.46157743 -9.34216863 146.11945445 -9.32348633 144.77734375 C-9.26066414 139.83833676 -9.21430872 134.89913136 -9.16601562 129.95996094 C-9.04226562 118.90496094 -8.91851562 107.84996094 -8.79101562 96.45996094 C-33.54101562 96.45996094 -58.29101562 96.45996094 -83.79101562 96.45996094 C-83.68789062 107.63871094 -83.58476562 118.81746094 -83.47851562 130.33496094 C-83.45362061 133.84620605 -83.42872559 137.35745117 -83.40307617 140.97509766 C-83.36645106 144.16166008 -83.36645106 144.16166008 -83.32600403 147.34817505 C-83.31000427 148.75185187 -83.29961549 150.15560032 -83.29389954 151.55935669 C-83.42098345 163.86477059 -83.42098345 163.86477059 -79.79101562 175.45996094 C-76.73951873 177.69199013 -76.73951873 177.69199013 -73.10351562 178.58496094 C-71.92402344 178.95878906 -70.74453125 179.33261719 -69.52929688 179.71777344 C-68.62566406 179.96269531 -67.72203125 180.20761719 -66.79101562 180.45996094 C-66.79101562 182.43996094 -66.79101562 184.41996094 -66.79101562 186.45996094 C-72.87005651 186.60508598 -78.94915577 186.74735771 -85.02832031 186.88720703 C-87.08790808 186.9349628 -89.14747923 186.98344168 -91.20703125 187.03271484 C-98.06803942 187.19654983 -104.929129 187.33849581 -111.79101562 187.45996094 C-113.14894226 187.48654785 -113.14894226 187.48654785 -114.53430176 187.51367188 C-117.0495657 187.55918651 -119.56454518 187.59031447 -122.08007812 187.61621094 C-123.19351089 187.63850769 -123.19351089 187.63850769 -124.32943726 187.66125488 C-128.05669019 187.68222023 -129.60177692 187.58612007 -132.79101562 185.45996094 C-132.59179688 183.08496094 -132.59179688 183.08496094 -131.79101562 180.45996094 C-129.64648438 179.27246094 -129.64648438 179.27246094 -126.97851562 178.45996094 C-122.58897221 176.90480841 -120.19071909 175.63335826 -117.79101562 171.45996094 C-116.6898137 168.09126537 -116.6602957 164.93013178 -116.65057373 161.40066528 C-116.64486359 160.15854279 -116.63915344 158.91642029 -116.63327026 157.63665771 C-116.632025 156.26281748 -116.63089989 154.88897714 -116.62988281 153.51513672 C-116.62525276 152.066171 -116.62022784 150.6172065 -116.61483765 149.16824341 C-116.60173119 145.23431903 -116.59527231 141.3004117 -116.59082699 137.36646891 C-116.58789391 134.90802564 -116.58378869 132.44958701 -116.57932281 129.99114609 C-116.56565356 122.29713021 -116.55598366 114.60312497 -116.55212092 106.90909779 C-116.54763905 98.03107133 -116.53008283 89.15319875 -116.50112033 80.27521908 C-116.4795012 73.40970549 -116.46941655 66.5442352 -116.46807981 59.67868793 C-116.4670321 55.57942401 -116.46113144 51.48030486 -116.44326019 47.38107681 C-116.42677508 43.52492331 -116.42462603 39.66902333 -116.4333992 35.81284714 C-116.4341693 34.39953177 -116.4298304 32.98620273 -116.41994095 31.57292175 C-116.40720922 29.63973068 -116.41489441 27.70643762 -116.42352295 25.77322388 C-116.42132311 24.15220859 -116.42132311 24.15220859 -116.41907883 22.49844551 C-116.85463326 18.94024578 -117.9726027 16.53185778 -119.79101562 13.45996094 C-121.59341258 12.00459701 -121.59341258 12.00459701 -123.66601562 11.20996094 C-124.3646875 10.90058594 -125.06335938 10.59121094 -125.78320312 10.27246094 C-126.44578125 10.00433594 -127.10835938 9.73621094 -127.79101562 9.45996094 C-128.78101563 9.04746094 -129.77101563 8.63496094 -130.79101562 8.20996094 C-131.45101562 7.96246094 -132.11101562 7.71496094 -132.79101562 7.45996094 C-132.79101562 5.47996094 -132.79101562 3.49996094 -132.79101562 1.45996094 C-111.01101562 1.45996094 -89.23101562 1.45996094 -66.79101562 1.45996094 C-66.79101562 3.76996094 -66.79101562 6.07996094 -66.79101562 8.45996094 C-67.46648437 8.63011719 -68.14195312 8.80027344 -68.83789062 8.97558594 C-75.8018716 10.67330282 -75.8018716 10.67330282 -80.79101562 15.45996094 C-82.91776076 22.20097478 -83.13120016 28.58051378 -83.20507812 35.61621094 C-83.22272217 36.63038086 -83.24036621 37.64455078 -83.25854492 38.68945312 C-83.32119372 42.44613339 -83.36766822 46.2030694 -83.41601562 49.95996094 C-83.53976563 58.37496094 -83.66351563 66.78996094 -83.79101562 75.45996094 C-59.04101562 75.45996094 -34.29101562 75.45996094 -8.79101562 75.45996094 C-8.91476563 67.23058594 -9.03851563 59.00121094 -9.16601562 50.52246094 C-9.20001465 47.94183838 -9.23401367 45.36121582 -9.26904297 42.70239258 C-9.30428261 40.63328821 -9.34020755 38.56419536 -9.37695312 36.49511719 C-9.38831299 35.43997925 -9.39967285 34.38484131 -9.41137695 33.29772949 C-9.53819479 22.74330204 -9.53819479 22.74330204 -13.29101562 13.08496094 C-17.1391652 10.58366371 -21.36922405 9.57384737 -25.79101562 8.45996094 C-25.79101562 6.14996094 -25.79101562 3.83996094 -25.79101562 1.45996094 C-17.19530425 0.25155509 -8.67028343 0.0935208 0 0 Z " fill="#5577F6" transform="translate(232.791015625,129.5400390625)"/>
<path d="M0 0 C1.89315903 -0.02674691 3.78616851 -0.06782336 5.67871094 -0.12304688 C8.43157752 -0.2021906 11.18170994 -0.23528449 13.93554688 -0.25878906 C14.77630768 -0.29178101 15.61706848 -0.32477295 16.48330688 -0.35876465 C19.96737043 -0.34693016 22.27432541 -0.3005326 25.03840637 1.94848633 C26.58386531 3.72019967 27.91891438 5.49614873 29.20898438 7.45996094 C29.61019501 8.05608185 30.01140564 8.65220276 30.42477417 9.26638794 C31.54515358 10.97209516 32.59833646 12.70899139 33.64648438 14.45996094 C36.7478923 19.55234262 39.926935 24.57771202 43.22460938 29.54589844 C43.91369385 30.58617187 44.60277832 31.62644531 45.31274414 32.69824219 C46.6925117 34.77524905 48.07834495 36.84824026 49.47045898 38.91699219 C50.41417358 40.34205078 50.41417358 40.34205078 51.37695312 41.79589844 C51.94696045 42.64716309 52.51696777 43.49842773 53.10424805 44.37548828 C53.46881104 45.06336426 53.83337402 45.75124023 54.20898438 46.45996094 C53.87898437 47.11996094 53.54898438 47.77996094 53.20898438 48.45996094 C50.43608754 44.31550403 47.66554855 40.16947904 44.89648438 36.02246094 C44.48736816 35.40992462 44.07825195 34.79738831 43.65673828 34.16629028 C38.15741626 25.92907529 32.69599015 17.67135858 27.38354492 9.31176758 C25.78858242 6.81582403 24.31072782 4.56170438 22.20898438 2.45996094 C20.10748274 2.16815914 20.10748274 2.16815914 17.66748047 2.23291016 C16.72665619 2.23306122 15.78583191 2.23321228 14.8164978 2.23336792 C13.28988022 2.24885178 13.28988022 2.24885178 11.73242188 2.26464844 C10.69203766 2.26747833 9.65165344 2.27030823 8.57974243 2.27322388 C5.24770743 2.2844439 1.91593851 2.30955179 -1.41601562 2.33496094 C-3.67122008 2.34498838 -5.92642874 2.35411464 -8.18164062 2.36230469 C-13.71819017 2.38438915 -19.25458389 2.41788455 -24.79101562 2.45996094 C-24.79101562 4.10996094 -24.79101562 5.75996094 -24.79101562 7.45996094 C-23.59476562 7.54246094 -22.39851563 7.62496094 -21.16601562 7.70996094 C-16.78908705 8.29767573 -14.12639972 9.42779358 -10.79101562 12.45996094 C-6.06780002 19.66981492 -6.22134165 27.18755709 -6.2734375 35.54174805 C-6.26800769 36.94555891 -6.26088023 38.34936406 -6.25219727 39.75315857 C-6.23406099 43.54257629 -6.24099129 47.33155527 -6.25371361 51.12098002 C-6.26389393 55.10146244 -6.25443385 59.08190918 -6.24816895 63.06239319 C-6.24090626 69.74600921 -6.25044298 76.42944803 -6.26953125 83.11303711 C-6.29128853 90.81973166 -6.28425157 98.52600267 -6.26222563 106.23268694 C-6.24402149 112.86994909 -6.24153796 119.50708439 -6.2519803 126.14436346 C-6.25818895 130.0994911 -6.25912409 134.05442026 -6.24583435 138.00953484 C-6.23420337 141.73046179 -6.24243201 145.45084764 -6.26541138 149.17171669 C-6.27314689 151.17357279 -6.26140407 153.17547513 -6.24890137 155.17730713 C-6.31668185 162.46283166 -6.81889076 169.15241831 -10.79101562 175.45996094 C-12.92961884 177.22866726 -12.92961884 177.22866726 -14.79101562 178.45996094 C-15.45101562 178.12996094 -16.11101562 177.79996094 -16.79101562 177.45996094 C-15.61539063 176.46996094 -15.61539063 176.46996094 -14.41601562 175.45996094 C-8.09209997 168.23262876 -9.44767203 157.89128407 -9.37695312 148.80371094 C-9.35998852 147.46157743 -9.34216863 146.11945445 -9.32348633 144.77734375 C-9.26066414 139.83833676 -9.21430872 134.89913136 -9.16601562 129.95996094 C-9.04226562 118.90496094 -8.91851562 107.84996094 -8.79101562 96.45996094 C-33.54101562 96.45996094 -58.29101562 96.45996094 -83.79101562 96.45996094 C-83.68789062 107.63871094 -83.58476562 118.81746094 -83.47851562 130.33496094 C-83.45362061 133.84620605 -83.42872559 137.35745117 -83.40307617 140.97509766 C-83.36645106 144.16166008 -83.36645106 144.16166008 -83.32600403 147.34817505 C-83.31000427 148.75185187 -83.29961549 150.15560032 -83.29389954 151.55935669 C-83.42098345 163.86477059 -83.42098345 163.86477059 -79.79101562 175.45996094 C-76.73951873 177.69199013 -76.73951873 177.69199013 -73.10351562 178.58496094 C-71.92402344 178.95878906 -70.74453125 179.33261719 -69.52929688 179.71777344 C-68.62566406 179.96269531 -67.72203125 180.20761719 -66.79101562 180.45996094 C-66.79101562 182.43996094 -66.79101562 184.41996094 -66.79101562 186.45996094 C-72.87005651 186.60508598 -78.94915577 186.74735771 -85.02832031 186.88720703 C-87.08790808 186.9349628 -89.14747923 186.98344168 -91.20703125 187.03271484 C-98.06803942 187.19654983 -104.929129 187.33849581 -111.79101562 187.45996094 C-113.14894226 187.48654785 -113.14894226 187.48654785 -114.53430176 187.51367188 C-117.0495657 187.55918651 -119.56454518 187.59031447 -122.08007812 187.61621094 C-123.19351089 187.63850769 -123.19351089 187.63850769 -124.32943726 187.66125488 C-128.05669019 187.68222023 -129.60177692 187.58612007 -132.79101562 185.45996094 C-132.59179688 183.08496094 -132.59179688 183.08496094 -131.79101562 180.45996094 C-129.64648438 179.27246094 -129.64648438 179.27246094 -126.97851562 178.45996094 C-122.58897221 176.90480841 -120.19071909 175.63335826 -117.79101562 171.45996094 C-116.6898137 168.09126537 -116.6602957 164.93013178 -116.65057373 161.40066528 C-116.64486359 160.15854279 -116.63915344 158.91642029 -116.63327026 157.63665771 C-116.632025 156.26281748 -116.63089989 154.88897714 -116.62988281 153.51513672 C-116.62525276 152.066171 -116.62022784 150.6172065 -116.61483765 149.16824341 C-116.60173119 145.23431903 -116.59527231 141.3004117 -116.59082699 137.36646891 C-116.58789391 134.90802564 -116.58378869 132.44958701 -116.57932281 129.99114609 C-116.56565356 122.29713021 -116.55598366 114.60312497 -116.55212092 106.90909779 C-116.54763905 98.03107133 -116.53008283 89.15319875 -116.50112033 80.27521908 C-116.4795012 73.40970549 -116.46941655 66.5442352 -116.46807981 59.67868793 C-116.4670321 55.57942401 -116.46113144 51.48030486 -116.44326019 47.38107681 C-116.42677508 43.52492331 -116.42462603 39.66902333 -116.4333992 35.81284714 C-116.4341693 34.39953177 -116.4298304 32.98620273 -116.41994095 31.57292175 C-116.40720922 29.63973068 -116.41489441 27.70643762 -116.42352295 25.77322388 C-116.42132311 24.15220859 -116.42132311 24.15220859 -116.41907883 22.49844551 C-116.85463326 18.94024578 -117.9726027 16.53185778 -119.79101562 13.45996094 C-121.59341258 12.00459701 -121.59341258 12.00459701 -123.66601562 11.20996094 C-124.3646875 10.90058594 -125.06335938 10.59121094 -125.78320312 10.27246094 C-126.44578125 10.00433594 -127.10835938 9.73621094 -127.79101562 9.45996094 C-128.78101563 9.04746094 -129.77101563 8.63496094 -130.79101562 8.20996094 C-131.45101562 7.96246094 -132.11101562 7.71496094 -132.79101562 7.45996094 C-132.79101562 5.47996094 -132.79101562 3.49996094 -132.79101562 1.45996094 C-111.01101562 1.45996094 -89.23101562 1.45996094 -66.79101562 1.45996094 C-66.79101562 3.76996094 -66.79101562 6.07996094 -66.79101562 8.45996094 C-67.46648437 8.63011719 -68.14195312 8.80027344 -68.83789062 8.97558594 C-75.8018716 10.67330282 -75.8018716 10.67330282 -80.79101562 15.45996094 C-82.91776076 22.20097478 -83.13120016 28.58051378 -83.20507812 35.61621094 C-83.22272217 36.63038086 -83.24036621 37.64455078 -83.25854492 38.68945312 C-83.32119372 42.44613339 -83.36766822 46.2030694 -83.41601562 49.95996094 C-83.53976563 58.37496094 -83.66351563 66.78996094 -83.79101562 75.45996094 C-59.04101562 75.45996094 -34.29101562 75.45996094 -8.79101562 75.45996094 C-8.91476563 67.23058594 -9.03851563 59.00121094 -9.16601562 50.52246094 C-9.20001465 47.94183838 -9.23401367 45.36121582 -9.26904297 42.70239258 C-9.30428261 40.63328821 -9.34020755 38.56419536 -9.37695312 36.49511719 C-9.38831299 35.43997925 -9.39967285 34.38484131 -9.41137695 33.29772949 C-9.53819479 22.74330204 -9.53819479 22.74330204 -13.29101562 13.08496094 C-17.1391652 10.58366371 -21.36922405 9.57384737 -25.79101562 8.45996094 C-25.79101562 6.14996094 -25.79101562 3.83996094 -25.79101562 1.45996094 C-17.19530425 0.25155509 -8.67028343 0.0935208 0 0 Z " fill="#5642CB" transform="translate(232.791015625,129.5400390625)"/>
<path d="M0 0 C17.16 0 34.32 0 52 0 C52 1.98 52 3.96 52 6 C51.40832031 6.19335938 50.81664062 6.38671875 50.20703125 6.5859375 C48.57508225 7.12370862 46.94756666 7.67507891 45.32421875 8.23828125 C43 9 43 9 40.125 9.5625 C36.3143464 12.14029508 35.86887772 16.66311687 35 21 C34.57713273 26.00108945 34.57161517 30.99035454 34.58349609 36.00561523 C34.5761027 37.49661944 34.56739359 38.9876176 34.55747986 40.47860718 C34.53429104 44.50138458 34.52901477 48.52400733 34.52682066 52.54684329 C34.52112723 56.77379861 34.49782982 61.00065568 34.47622681 65.22755432 C34.43778848 73.23227844 34.41351969 81.23697416 34.39510214 89.24176699 C34.36167051 103.56446988 34.30367573 117.88708601 34.24111044 132.20968777 C34.2197447 137.22771154 34.20440321 142.24570654 34.19427085 147.26376522 C34.18720423 150.39563119 34.17631772 153.52747668 34.16462898 156.65932846 C34.16010919 158.10117604 34.15723229 159.54302996 34.15620613 160.98488426 C34.1497107 169.04778313 33.91177232 176.98515822 33 185 C31.4375 185.25 29.875 185.5 28.3125 185.75 C27.00732422 185.95882812 27.00732422 185.95882812 25.67578125 186.171875 C21.92882729 185.93119475 20.62408479 184.64534966 18 182 C16.0078125 178.8984375 16.0078125 178.8984375 14.125 175.375 C11.38006106 170.26413043 8.36468511 165.57779122 5.00439453 160.84912109 C1.01819474 155.18298814 -2.78803322 149.39277819 -6.625 143.625 C-7.31100281 142.59433411 -7.31100281 142.59433411 -8.01086426 141.54284668 C-11.09490508 136.90821501 -14.17466647 132.27075378 -17.25280762 127.63220215 C-19.10935766 124.83524913 -20.96726199 122.03919837 -22.82519531 119.24316406 C-26.15002429 114.23802705 -29.46917413 109.22916057 -32.78485107 104.21795654 C-34.09163298 102.24432907 -35.39993492 100.27170717 -36.70977783 98.30010986 C-38.55568307 95.52064741 -40.39571899 92.73738645 -42.234375 89.953125 C-42.78860138 89.12116608 -43.34282776 88.28920715 -43.91384888 87.43203735 C-46.35491601 83.72329013 -48.59850827 80.25154818 -50 76 C-45.93569905 79.63304655 -43.22429943 83.96647133 -40.28515625 88.50390625 C-39.72556213 89.35856979 -39.16596802 90.21323334 -38.5894165 91.09379578 C-37.37752977 92.94516254 -36.16767463 94.79786041 -34.95962524 96.6517334 C-31.71817135 101.62510865 -28.46121756 106.58829542 -25.203125 111.55078125 C-24.53046097 112.57569672 -23.85779694 113.60061218 -23.16474915 114.65658569 C-14.80847169 127.36626432 -6.2723226 139.95451995 2.27905273 152.53344727 C2.85015274 153.37613663 3.42125275 154.21882599 4.00965881 155.08705139 C5.12098423 156.72558067 6.23590948 158.36167516 7.35472107 159.99510193 C9.96486128 163.83677268 12.43577344 167.69014268 14.69775391 171.74804688 C15.12417679 172.49495789 15.55059967 173.2418689 15.98994446 174.01141357 C16.77236557 175.40029614 17.52644924 176.80573734 18.24382019 178.22930908 C19.38643963 180.40868308 19.38643963 180.40868308 22 183 C24.47942774 183.56598481 24.47942774 183.56598481 27.16850281 183.68145752 C28.52419892 183.78137938 28.52419892 183.78137938 29.90728283 183.88331985 C30.94317783 183.94107653 30.94317783 183.94107653 32 184 C31.99723462 183.1733915 31.99446924 182.34678301 31.99162006 181.49512577 C31.92530938 161.36336571 31.87569466 141.23162453 31.84456348 121.09977818 C31.82910776 111.36408626 31.80804299 101.62846733 31.77368164 91.89282227 C31.74373965 83.4052594 31.72441559 74.91774941 31.71773452 66.43013519 C31.71383039 61.93779353 31.70468215 57.44560311 31.68280983 52.95331001 C31.6623688 48.72048496 31.65618153 44.48787271 31.66067696 40.25500298 C31.65985515 38.70587887 31.65393497 37.15674727 31.64238358 35.60766602 C31.5137172 17.45469469 31.5137172 17.45469469 37.25 10.125 C41.18153762 7.08699365 44.90452916 5 50 5 C50 3.68 50 2.36 50 1 C33.83 1 17.66 1 1 1 C1 2.65 1 4.3 1 6 C2.19625 6.0825 3.3925 6.165 4.625 6.25 C8.95533229 6.80850575 11.6131498 8.15196688 15 11 C19.58517575 17.07225978 20.14425024 21.55007675 20.11352539 28.96948242 C20.11367142 29.88675613 20.11381744 30.80402985 20.1139679 31.74909973 C20.11327057 34.78458003 20.10548656 37.81999916 20.09765625 40.85546875 C20.09579143 42.95868394 20.09436783 45.06189957 20.09336853 47.16511536 C20.08954839 52.70369666 20.07972237 58.2422518 20.06866455 63.78082275 C20.05843964 69.43135219 20.05386859 75.08188585 20.04882812 80.73242188 C20.03809968 91.82162609 20.02102926 102.91081087 20 114 C19.34 114 18.68 114 18 114 C16.55370659 111.90493165 15.23826372 109.80957175 13.9375 107.625 C9.3686296 100.13528836 4.62585065 92.77228458 -0.1875 85.4375 C-0.90671631 84.33809082 -1.62593262 83.23868164 -2.36694336 82.10595703 C-6.04539675 76.48496568 -9.74292299 70.8774714 -13.46484375 65.28515625 C-14.16520752 64.2269165 -14.86557129 63.16867676 -15.5871582 62.07836914 C-16.92408342 60.05880641 -18.26746695 58.04350106 -19.61791992 56.03295898 C-20.5070105 54.68633179 -20.5070105 54.68633179 -21.4140625 53.3125 C-21.9395166 52.52488281 -22.4649707 51.73726562 -23.00634766 50.92578125 C-23.33425293 50.29027344 -23.6621582 49.65476563 -24 49 C-23.67 48.34 -23.34 47.68 -23 47 C-17.19075541 55.06949675 -11.81272337 63.4003716 -6.43945312 71.76220703 C-4.61205201 74.60310911 -2.77718399 77.43913309 -0.94110107 80.27442932 C0.39155145 82.33251701 1.72373309 84.39090819 3.05566406 86.44946289 C3.53348328 87.18793961 4.01130249 87.92641632 4.50360107 88.68727112 C4.99741272 89.45047165 5.49122437 90.21367218 6 91 C6.981116 92.51627849 7.96223578 94.03255454 8.94335938 95.54882812 C12.97167969 101.77441406 12.97167969 101.77441406 17 108 C17.79425024 75.06085235 17.79425024 75.06085235 18.17724609 42.11520386 C18.18721372 40.11980988 18.20674677 38.12447087 18.2265625 36.12915039 C18.28613545 24.15216569 18.28613545 24.15216569 14.3125 13.0625 C10.1897374 9.38544147 5.40197617 7.81848124 0 7 C-1.125 2.25 -1.125 2.25 0 0 Z " fill="#2A324A" transform="translate(311,131)"/>
<path d="M0 0 C2.22503377 2.17561096 3.99217063 4.3117592 5.70703125 6.9140625 C6.4640332 8.05681641 6.4640332 8.05681641 7.23632812 9.22265625 C7.75646484 10.01542969 8.27660156 10.80820313 8.8125 11.625 C9.32103516 12.39457031 9.82957031 13.16414062 10.35351562 13.95703125 C11.37966848 15.50991657 12.4045744 17.0636266 13.42822266 18.61816406 C15.93805223 22.42150319 18.46881993 26.21084884 21 30 C20.67 30.66 20.34 31.32 20 32 C15.01289785 25.34147124 10.34601341 18.58231637 5.97094727 11.50927734 C4.02415813 8.20529243 4.02415813 8.20529243 1 6 C1.06065183 20.44767564 1.13842841 34.89517314 1.23571491 49.34265041 C1.28059136 56.05157839 1.32002453 62.76045424 1.34643555 69.46948242 C1.37249106 75.94702064 1.41291013 82.42432612 1.46318626 88.90172005 C1.47983963 91.36994591 1.4913634 93.83821201 1.49761391 96.30648613 C1.50727128 99.77024468 1.53535168 103.23340983 1.56762695 106.69702148 C1.56619186 107.71194672 1.56475677 108.72687195 1.5632782 109.77255249 C1.65682359 116.89586536 2.22849439 123.99065941 7.23046875 129.421875 C10.5264475 131.29997855 13.64443508 132.29013254 17.3125 133.25 C18.56675781 133.58515625 19.82101562 133.9203125 21.11328125 134.265625 C22.54220703 134.62914062 22.54220703 134.62914062 24 135 C24.38218767 136.65614657 24.71395102 138.32457024 25 140 C23.31258058 141.68741942 21.18401261 141.17684799 18.86938477 141.22119141 C17.77477432 141.24436432 16.68016388 141.26753723 15.55238342 141.29141235 C14.36076096 141.3112619 13.16913849 141.33111145 11.94140625 141.3515625 C10.11946999 141.38629166 10.11946999 141.38629166 8.26072693 141.42172241 C5.68582469 141.46944808 3.11087507 141.51467137 0.53588867 141.55761719 C-3.41700661 141.62465246 -7.36959024 141.70240838 -11.32226562 141.78125 C-13.81769676 141.8261687 -16.31313927 141.8704605 -18.80859375 141.9140625 C-20.5929911 141.94990952 -20.5929911 141.94990952 -22.41343689 141.98648071 C-24.0600808 142.0117836 -24.0600808 142.0117836 -25.73999023 142.03759766 C-27.19440773 142.06305161 -27.19440773 142.06305161 -28.6782074 142.08901978 C-31 142 -31 142 -33 141 C-33 139.02 -33 137.04 -33 135 C-28.56923077 132.90769231 -28.56923077 132.90769231 -25.6875 133.375 C-25.130625 133.58125 -24.57375 133.7875 -24 134 C-26.90600261 135.25664978 -28.79604584 136 -32 136 C-32 137.32 -32 138.64 -32 140 C-13.85 140 4.3 140 23 140 C23 138.68 23 137.36 23 136 C22.3709375 135.98582031 21.741875 135.97164062 21.09375 135.95703125 C14.59586792 135.59495047 9.97279291 134.30669132 5 130 C1.38477346 125.36509418 -0.12629614 121.87577519 -0.12025452 116.04560852 C-0.12162918 115.02337189 -0.12300385 114.00113525 -0.12442017 112.94792175 C-0.11902725 111.26694145 -0.11902725 111.26694145 -0.11352539 109.55200195 C-0.11367142 108.37138184 -0.11381744 107.19076172 -0.1139679 105.97436523 C-0.11339024 102.73702558 -0.10837183 99.49972905 -0.10139394 96.262398 C-0.09514648 92.87913211 -0.0945555 89.49586538 -0.09336853 86.1125946 C-0.09025933 79.70593784 -0.08205147 73.29929813 -0.07201904 66.89264888 C-0.06084516 59.59888731 -0.05534423 52.30512494 -0.05032361 45.01135695 C-0.03986853 30.0075618 -0.02227702 15.0037826 0 0 Z " fill="#252B39" transform="translate(240,175)"/>
<path d="M0 0 C2.33338839 2.33338839 3.92868974 4.21542687 5.70703125 6.9140625 C6.21169922 7.67589844 6.71636719 8.43773437 7.23632812 9.22265625 C7.75646484 10.01542969 8.27660156 10.80820313 8.8125 11.625 C9.32103516 12.39457031 9.82957031 13.16414062 10.35351562 13.95703125 C11.37966848 15.50991657 12.4045744 17.0636266 13.42822266 18.61816406 C15.93805223 22.42150319 18.46881993 26.21084884 21 30 C20.67 30.66 20.34 31.32 20 32 C15.01289785 25.34147124 10.34601341 18.58231637 5.97094727 11.50927734 C4.02415813 8.20529243 4.02415813 8.20529243 1 6 C1 27.78 1 49.56 1 72 C0.67 72 0.34 72 0 72 C0 48.24 0 24.48 0 0 Z " fill="#293149" transform="translate(240,175)"/>
</svg>
